<svg width="54" height="54" viewBox="0 0 54 54" fill="none" xmlns="http://www.w3.org/2000/svg">
<path d="M51.6487 27C51.6487 40.8071 40.5345 52 26.8244 52C13.1142 52 2 40.8071 2 27C2 13.1929 13.1142 2 26.8244 2C40.5345 2 51.6487 13.1929 51.6487 27Z" fill="white"/>
<path fill-rule="evenodd" clip-rule="evenodd" d="M9.93424 27.8732C11.9153 24.7688 15.9682 23.7787 19.1415 25.6238L33.2638 33.835C33.3614 33.8917 33.3948 34.0174 33.3385 34.1156C33.2822 34.2139 33.1574 34.2476 33.0598 34.1908L19.1322 26.0928C16.147 24.3571 12.3345 25.2885 10.4709 28.2088C8.48919 31.314 9.46818 35.4558 12.6266 37.3288L23.7448 43.9223C25.2276 44.8016 27.1379 44.295 27.9983 42.7942C28.8534 41.3025 28.3459 39.395 26.8647 38.5338L20.146 34.6273C20.0484 34.5706 20.015 34.4449 20.0713 34.3466C20.1276 34.2484 20.2524 34.2147 20.35 34.2715L27.2618 38.2902C28.9386 39.2652 29.5132 41.4246 28.5451 43.1133C27.571 44.8122 25.4085 45.3858 23.7299 44.3903L12.2258 37.568C8.86841 35.5769 7.8277 31.1741 9.93424 27.8732Z" fill="white"/>
<path fill-rule="evenodd" clip-rule="evenodd" d="M43.5683 25.1742C41.6343 28.1969 37.6851 29.1592 34.5928 27.3612L20.3195 19.0623C20.2244 19.0069 20.1918 18.8844 20.2467 18.7885C20.3016 18.6927 20.4233 18.6598 20.5185 18.7152L34.5884 26.8959C37.4973 28.5873 41.2123 27.6821 43.0317 24.8386C44.97 21.8094 44.016 17.7646 40.9322 15.9367L29.6113 9.22622C28.1648 8.36884 26.3017 8.86317 25.4625 10.327C24.6282 11.7822 25.1233 13.6429 26.5683 14.4831L33.357 18.4303C33.4522 18.4856 33.4848 18.6082 33.4299 18.704C33.3749 18.7999 33.2532 18.8327 33.1581 18.7774L26.1675 14.7128C24.5318 13.7617 23.9713 11.6553 24.9157 10.0079C25.8657 8.3508 27.9749 7.7912 29.6123 8.7618L41.3365 15.7112C44.6146 17.6543 45.6287 21.9541 43.5683 25.1742Z" fill="white"/>
<path d="M12.2258 37.568L12.991 36.2778L12.991 36.2778L12.2258 37.568ZM9.93424 27.8732L8.66978 27.0663L9.93424 27.8732ZM28.5451 43.1133L27.2437 42.3672L28.5451 43.1133ZM23.7299 44.3903L22.9648 45.6805L22.9648 45.6805L23.7299 44.3903ZM27.2618 38.2902L28.0158 36.9935L28.0158 36.9935L27.2618 38.2902ZM20.35 34.2715L19.596 35.5682L19.596 35.5682L20.35 34.2715ZM20.146 34.6273L19.392 35.924L19.392 35.924L20.146 34.6273ZM27.9983 42.7942L26.6969 42.0482L27.9983 42.7942ZM26.8647 38.5338L27.6187 37.237L27.6187 37.237L26.8647 38.5338ZM23.7448 43.9223L22.9797 45.2125L22.9797 45.2125L23.7448 43.9223ZM10.4709 28.2088L9.20643 27.4018L9.20643 27.4018L10.4709 28.2088ZM12.6266 37.3288L13.3917 36.0386L13.3917 36.0386L12.6266 37.3288ZM19.1322 26.0928L19.8861 24.7961L19.8861 24.7961L19.1322 26.0928ZM33.0598 34.1908L32.3059 35.4876L32.3059 35.4876L33.0598 34.1908ZM33.2638 33.835L32.5098 35.1317L32.5098 35.1317L33.2638 33.835ZM19.1415 25.6238L19.8955 24.3271L19.8955 24.3271L19.1415 25.6238ZM41.3365 15.7112L40.5716 17.0016L40.5716 17.0016L41.3365 15.7112ZM43.5683 25.1742L42.3049 24.3657L42.3049 24.3657L43.5683 25.1742ZM24.9157 10.0079L23.6144 9.26189L24.9157 10.0079ZM29.6123 8.7618L30.3772 7.47144L30.3772 7.47144L29.6123 8.7618ZM26.1675 14.7128L25.4136 16.0096L26.1675 14.7128ZM33.1581 18.7774L33.912 17.4806L33.1581 18.7774ZM33.357 18.4303L34.111 17.1336L34.111 17.1336L33.357 18.4303ZM25.4625 10.327L24.1612 9.58096L24.1612 9.58096L25.4625 10.327ZM26.5683 14.4831L25.8143 15.7798L25.8143 15.7798L26.5683 14.4831ZM29.6113 9.22622L28.8464 10.5166L28.8464 10.5166L29.6113 9.22622ZM43.0317 24.8386L44.2952 25.6471L43.0317 24.8386ZM40.9322 15.9367L41.6971 14.6463L41.6971 14.6463L40.9322 15.9367ZM34.5884 26.8959L35.3424 25.5992L34.5884 26.8959ZM20.5185 18.7152L21.2725 17.4184L20.5185 18.7152ZM20.3195 19.0623L19.5656 20.359L19.5656 20.359L20.3195 19.0623ZM34.5928 27.3612L35.3467 26.0645L35.3467 26.0645L34.5928 27.3612ZM50.1487 27C50.1487 39.9887 39.6961 50.5 26.8244 50.5V53.5C41.3729 53.5 53.1487 41.6256 53.1487 27H50.1487ZM26.8244 50.5C13.9526 50.5 3.5 39.9887 3.5 27H0.5C0.5 41.6256 12.2759 53.5 26.8244 53.5V50.5ZM3.5 27C3.5 14.0113 13.9526 3.5 26.8244 3.5V0.5C12.2759 0.5 0.5 12.3744 0.5 27H3.5ZM26.8244 3.5C39.6961 3.5 50.1487 14.0113 50.1487 27H53.1487C53.1487 12.3744 41.3729 0.5 26.8244 0.5V3.5ZM24.5099 42.6321L13.3917 36.0386L11.8614 38.619L22.9797 45.2125L24.5099 42.6321ZM19.392 35.924L26.1107 39.8305L27.6187 37.237L20.8999 33.3305L19.392 35.924ZM34.0178 32.5383L19.8955 24.3271L18.3875 26.9205L32.5098 35.1317L34.0178 32.5383ZM18.3782 27.3895L32.3059 35.4876L33.8138 32.8941L19.8861 24.7961L18.3782 27.3895ZM28.0158 36.9935L21.1039 32.9747L19.596 35.5682L26.5078 39.587L28.0158 36.9935ZM11.4607 38.8582L22.9648 45.6805L24.495 43.1001L12.991 36.2778L11.4607 38.8582ZM12.991 36.2778C10.3667 34.7215 9.54562 31.2705 11.1987 28.6801L8.66978 27.0663C6.10977 31.0778 7.37013 36.4323 11.4607 38.8582L12.991 36.2778ZM27.2437 42.3672C26.6835 43.3444 25.4493 43.666 24.495 43.1001L22.9648 45.6805C25.3677 47.1055 28.4585 46.2801 29.8464 43.8593L27.2437 42.3672ZM26.5078 39.587C27.4673 40.1449 27.8041 41.3898 27.2437 42.3672L29.8464 43.8593C31.2223 41.4593 30.41 38.3856 28.0158 36.9935L26.5078 39.587ZM21.3726 35.0927C21.0177 35.7119 20.222 35.9322 19.596 35.5682L21.1039 32.9747C20.2828 32.4973 19.2376 32.7849 18.77 33.6006L21.3726 35.0927ZM20.8999 33.3305C21.5197 33.6909 21.7241 34.4796 21.3726 35.0927L18.77 33.6006C18.3059 34.4102 18.5771 35.4502 19.392 35.924L20.8999 33.3305ZM29.2996 43.5402C30.5626 41.3372 29.8173 38.5154 27.6187 37.237L26.1107 39.8305C26.8746 40.2747 27.1443 41.2678 26.6969 42.0482L29.2996 43.5402ZM22.9797 45.2125C25.1868 46.5213 28.0254 45.7629 29.2996 43.5402L26.6969 42.0482C26.2504 42.8271 25.2684 43.0819 24.5099 42.6321L22.9797 45.2125ZM9.20643 27.4018C6.77126 31.2176 7.9699 36.3112 11.8614 38.619L13.3917 36.0386C10.9665 34.6004 10.2071 31.4104 11.7353 29.0157L9.20643 27.4018ZM11.7353 29.0157C13.1686 26.7698 16.0921 26.0603 18.3782 27.3895L19.8861 24.7961C16.202 22.654 11.5004 23.8072 9.20643 27.4018L11.7353 29.0157ZM32.0372 33.3696C32.3921 32.7504 33.1877 32.5301 33.8138 32.8941L32.3059 35.4876C33.127 35.965 34.1722 35.6774 34.6398 34.8617L32.0372 33.3696ZM34.6398 34.8617C35.1039 34.0521 34.8327 33.0121 34.0178 32.5383L32.5098 35.1317C31.8901 34.7714 31.6857 33.9826 32.0372 33.3696L34.6398 34.8617ZM19.8955 24.3271C16.0231 22.0755 11.0812 23.2875 8.66978 27.0663L11.1987 28.6801C12.7494 26.2502 15.9132 25.4819 18.3875 26.9205L19.8955 24.3271ZM28.8464 10.5166L40.1674 17.227L41.6971 14.6463L30.3761 7.93587L28.8464 10.5166ZM34.111 17.1336L27.3223 13.1863L25.8143 15.7798L32.6031 19.727L34.111 17.1336ZM19.5656 20.359L33.8388 28.658L35.3467 26.0645L21.0735 17.7655L19.5656 20.359ZM35.3424 25.5992L21.2725 17.4184L19.7645 20.0119L33.8344 28.1927L35.3424 25.5992ZM25.4136 16.0096L32.4041 20.0741L33.912 17.4806L26.9215 13.4161L25.4136 16.0096ZM42.1013 14.4209L30.3772 7.47144L28.8475 10.0521L40.5716 17.0016L42.1013 14.4209ZM40.5716 17.0016C43.1158 18.5096 43.9105 21.8564 42.3049 24.3657L44.8318 25.9826C47.347 22.0518 46.1134 16.799 42.1013 14.4209L40.5716 17.0016ZM26.217 10.754C26.7533 9.81857 27.9343 9.51086 28.8475 10.0521L30.3772 7.47144C28.0154 6.07153 24.9782 6.88304 23.6144 9.26189L26.217 10.754ZM26.9215 13.4161C26.0031 12.8821 25.6804 11.69 26.217 10.754L23.6144 9.26189C22.2622 11.6206 23.0604 14.6414 25.4136 16.0096L26.9215 13.4161ZM32.1286 17.958C32.4849 17.3364 33.2836 17.1153 33.912 17.4806L32.4041 20.0741C33.2229 20.5502 34.2649 20.2634 34.7312 19.4501L32.1286 17.958ZM32.6031 19.727C31.9809 19.3653 31.7757 18.5735 32.1286 17.958L34.7312 19.4501C35.1939 18.6429 34.9235 17.606 34.111 17.1336L32.6031 19.727ZM24.1612 9.58096C22.9191 11.7475 23.652 14.5226 25.8143 15.7798L27.3223 13.1863C26.5946 12.7633 26.3373 11.8169 26.7638 11.073L24.1612 9.58096ZM30.3761 7.93587C28.2054 6.64918 25.4141 7.39541 24.1612 9.58096L26.7638 11.073C27.1893 10.3309 28.1242 10.0885 28.8464 10.5166L30.3761 7.93587ZM44.2952 25.6471C46.6882 21.9071 45.5148 16.9093 41.6971 14.6463L40.1674 17.227C42.5172 18.6199 43.2517 21.7117 41.7683 24.0301L44.2952 25.6471ZM41.7683 24.0301C40.3796 26.2003 37.5529 26.8844 35.3424 25.5992L33.8344 28.1927C37.4417 30.2901 42.045 29.1638 44.2952 25.6471L41.7683 24.0301ZM21.548 19.5346C21.1917 20.1562 20.393 20.3773 19.7645 20.0119L21.2725 17.4184C20.4537 16.9424 19.4116 17.2292 18.9454 18.0425L21.548 19.5346ZM18.9454 18.0425C18.4827 18.8496 18.753 19.8866 19.5656 20.359L21.0735 17.7655C21.6957 18.1273 21.9009 18.9191 21.548 19.5346L18.9454 18.0425ZM33.8388 28.658C37.6295 30.862 42.4669 29.6787 44.8318 25.9826L42.3049 24.3657C40.8016 26.7152 37.7406 27.4564 35.3467 26.0645L33.8388 28.658Z" fill="black"/>
</svg>
